<?xml version="1.0" encoding="UTF-8"?>
<svg width="40.361mm" height="38.739mm" version="1.1" viewBox="0 0 143.01312 137.26557" xmlns="http://www.w3.org/2000/svg">
 <g transform="translate(-679.92 -940.87)">
  <g transform="matrix(.31451 0 -.054989 .31451 1096.2 716.56)" filter="url(#filter4218)" opacity=".95">
   <path d="m-1111 743.86c-36.535 5.3983-64.494 43.515-65.642 82.638l-0.3628 12.358 101.59-15.01-7.67 261.31c-1.1483 39.122 24.806 69.275 61.341 63.877l101.59-15.01 101.59-15.01c36.536-5.3983 64.494-43.517 65.642-82.639l-12.698 1.8763-89.334 28.313 0.8083-27.538 7.6701-261.31c1.1483-39.122-24.806-69.273-61.341-63.875l-101.59 15.01-101.59 15.01z" color="#000000" color-rendering="auto" fill="#4d4d4d" fill-rule="evenodd" image-rendering="auto" opacity="1" shape-rendering="auto" solid-color="#000000" style="block-progression:tb;isolation:auto;mix-blend-mode:normal;text-decoration-color:#000000;text-decoration-line:none;text-decoration-style:solid;text-indent:0;text-transform:none;white-space:normal"/>
   <path d="m-1111.4 756.22c28.14-4.1578 49.996 19.655 49.006 53.393l-8.0328 273.67c-0.9903 33.738 20.866 57.552 49.006 53.395 28.139-4.1578 51.59-34.667 52.581-68.405-0.0453 1.5444-0.0266 3.0599 0.0222 4.561l0.13455-4.5842 101.43-14.987 8.0328-273.67c0.99029-33.738-20.866-57.551-49.006-53.393l-101.59 15.01-101.59 15.01z" color="#000000" color-rendering="auto" fill="#f2f2f2" fill-rule="evenodd" image-rendering="auto" opacity="1" shape-rendering="auto" solid-color="#000000" style="isolation:auto;mix-blend-mode:normal"/>
   <path d="m-867.24 1053.3c-1e-5 6e-4 0 0 0 0l-101.59 15.01c-0.99113 33.737-24.442 64.245-52.581 68.403l101.59-15.01 101.59-15.01c28.139-4.1578 51.59-34.667 52.581-68.405l-101.59 15.01z" color="#000000" color-rendering="auto" fill="#b3b3b3" fill-rule="evenodd" image-rendering="auto" opacity="1" shape-rendering="auto" solid-color="#000000" style="isolation:auto;mix-blend-mode:normal"/>
   <path d="m-1111.4 756.22c-28.139 4.1578-51.59 34.665-52.581 68.403l101.59-15.01c0.9903-33.738-20.866-57.551-49.006-53.393z" color="#000000" color-rendering="auto" fill="#b3b3b3" fill-rule="evenodd" image-rendering="auto" opacity="1" shape-rendering="auto" solid-color="#000000" style="isolation:auto;mix-blend-mode:normal"/>
   <path d="m-855.4 1086.9-123.97 18.318c-9.6535 16.733-24.976 28.944-42.032 31.464l101.59-15.01 101.59-15.01c17.057-2.5203 32.38-14.731 42.034-31.466l-79.202 11.703z" color="#000000" color-rendering="auto" fill="#808080" fill-rule="evenodd" image-rendering="auto" opacity="1" shape-rendering="auto" solid-color="#000000" style="isolation:auto;mix-blend-mode:normal"/>
   <path d="m-1111.4 756.22c-28.139 4.1578-51.59 34.665-52.581 68.403l84.044-59.697c-8.4558-7.1054-19.376-10.492-31.463-8.7056z" fill="#808080" fill-rule="evenodd"/>
   <g transform="matrix(1.0159 -.1501 -.02902 .98867 42.336 -134.27)" fill-rule="evenodd" shape-rendering="auto">
    <rect x="-990.84" y="807.38" width="110.49" height="8.8251" color="#000000" color-rendering="auto" fill="#00aad4" image-rendering="auto" opacity="1" solid-color="#000000" style="isolation:auto;mix-blend-mode:normal"/>
    <path d="m-1033.8 804.75-2.2939 2.294 15.632 15.632 19.779-19.78-2.2939-2.294-17.486 17.485z" color="#000000" color-rendering="auto" fill="#0f0" image-rendering="auto" opacity="1" solid-color="#000000" style="isolation:auto;mix-blend-mode:normal"/>
   </g>
   <g transform="matrix(1.0159 -.1501 -.02902 .98867 40.856 -83.827)" fill-rule="evenodd" shape-rendering="auto">
    <rect x="-990.84" y="807.38" width="110.49" height="8.8251" color="#000000" color-rendering="auto" fill="#00aad4" image-rendering="auto" opacity="1" solid-color="#000000" style="isolation:auto;mix-blend-mode:normal"/>
    <path d="m-1033.8 804.75-2.2939 2.294 15.632 15.632 19.779-19.78-2.2939-2.294-17.486 17.485z" color="#000000" color-rendering="auto" fill="#0f0" image-rendering="auto" opacity="1" solid-color="#000000" style="isolation:auto;mix-blend-mode:normal"/>
   </g>
   <g transform="matrix(1.0159 -.1501 -.02902 .98867 39.376 -33.388)" fill-rule="evenodd" shape-rendering="auto">
    <rect x="-990.84" y="807.38" width="110.49" height="8.8251" color="#000000" color-rendering="auto" fill="#00aad4" image-rendering="auto" opacity="1" solid-color="#000000" style="isolation:auto;mix-blend-mode:normal"/>
    <path d="m-1033.8 804.75-2.2939 2.294 15.632 15.632 19.779-19.78-2.2939-2.294-17.486 17.485z" color="#000000" color-rendering="auto" fill="#0f0" image-rendering="auto" opacity="1" solid-color="#000000" style="isolation:auto;mix-blend-mode:normal"/>
   </g>
   <g transform="matrix(1.0159 -.1501 -.02902 .98867 37.895 17.05)" fill-rule="evenodd" shape-rendering="auto">
    <rect x="-990.84" y="807.38" width="110.49" height="8.8251" color="#000000" color-rendering="auto" fill="#00aad4" image-rendering="auto" opacity="1" solid-color="#000000" style="isolation:auto;mix-blend-mode:normal"/>
    <path d="m-1033.8 804.75-2.2939 2.294 15.632 15.632 19.779-19.78-2.2939-2.294-17.486 17.485z" color="#000000" color-rendering="auto" fill="#0f0" image-rendering="auto" opacity="1" solid-color="#000000" style="isolation:auto;mix-blend-mode:normal"/>
   </g>
   <g transform="matrix(1.0159 -.1501 -.02902 .98867 36.415 67.489)">
    <path d="m-990.84 807.38 52.525 0.79352v8.8251l-52.525-0.79352z" color="#000000" color-rendering="auto" fill="#00aad4" fill-rule="evenodd" image-rendering="auto" opacity="1" shape-rendering="auto" solid-color="#000000" style="isolation:auto;mix-blend-mode:normal"/>
   </g>
   <g transform="translate(-256.6 15.975)" fill-rule="evenodd" shape-rendering="auto">
    <path d="m-650.1 972.88 173.27-150.71 13.773 15.81-173.27 150.71" color="#000000" color-rendering="auto" fill="#fc0" image-rendering="auto" opacity="1" solid-color="#000000" style="isolation:auto;mix-blend-mode:normal"/>
    <path d="m-636.33 988.69-22.856 6.0075 9.0839-21.817" color="#000000" color-rendering="auto" fill="#ccc" image-rendering="auto" opacity="1" solid-color="#000000" style="isolation:auto;mix-blend-mode:normal"/>
   </g>
  </g>
 </g>
</svg>
